<svg xmlns="http://www.w3.org/2000/svg" width="1200" height="180" viewBox="0 0 1200 180" role="img" aria-label="Xem Bói">
  <defs>
    <linearGradient id="bg" x1="0" y1="0" x2="1" y2="1">
      <stop offset="0" stop-color="#1fbfa8"/>
      <stop offset="1" stop-color="#0d9488"/>
    </linearGradient>
    <linearGradient id="glow" x1="0" y1="0" x2="0" y2="1">
      <stop offset="0" stop-color="#ffffff" stop-opacity="0.25"/>
      <stop offset="1" stop-color="#ffffff" stop-opacity="0"/>
    </linearGradient>
  </defs>
  <rect width="1200" height="180" rx="16" fill="url(#bg)"/>
  <rect width="1200" height="90" rx="16" fill="url(#glow)"/>
  <!-- 좌우 대칭 별 장식 -->
  <g fill="#ffffff" fill-opacity="0.85">
    <circle cx="120" cy="44" r="3"/>
    <circle cx="170" cy="120" r="2"/>
    <circle cx="80" cy="96" r="2.5"/>
    <circle cx="1080" cy="44" r="3"/>
    <circle cx="1030" cy="120" r="2"/>
    <circle cx="1120" cy="96" r="2.5"/>
    <circle cx="1150" cy="56" r="2"/>
  </g>
  <!-- 가운데 정렬: 말풍선 아이콘 + 제목 + 부제 -->
  <g transform="translate(430,46)">
    <rect x="0" y="0" width="72" height="54" rx="13" fill="#ffffff"/>
    <path d="M16 54 L16 70 L37 54 Z" fill="#ffffff"/>
    <circle cx="22" cy="27" r="5.5" fill="#0d9488"/>
    <circle cx="38" cy="27" r="5.5" fill="#1fbfa8"/>
    <circle cx="54" cy="27" r="5.5" fill="#0b7d73"/>
  </g>
  <text x="524" y="86" font-family="'Be Vietnam Pro','Segoe UI',sans-serif" font-size="46" font-weight="800" fill="#ffffff">Xem Bói</text>
  <text x="600" y="132" text-anchor="middle" font-family="'Be Vietnam Pro','Segoe UI',sans-serif" font-size="22" font-weight="500" fill="#eafaff">Luận giải Tứ Trụ bằng AI · Hỏi bất cứ lúc nào</text>
</svg>
