<svg xmlns="http://www.w3.org/2000/svg" viewBox="0 0 512 512" width="512" height="512">
  <defs>
    <linearGradient id="bg" x1="0" y1="0" x2="1" y2="1">
      <stop offset="0" stop-color="#5ed6c2"/>
      <stop offset="0.55" stop-color="#1fbfa8"/>
      <stop offset="1" stop-color="#0d9488"/>
    </linearGradient>
  </defs>
  <!-- 부드러운 라운드 사각 배경 -->
  <rect x="0" y="0" width="512" height="512" rx="116" fill="url(#bg)"/>
  <!-- 친근한 말풍선(상담 친구) -->
  <path d="M256 120
           c-92 0-166 60-166 134
           0 44 26 83 67 108
           -4 26-16 45-33 60
           34-4 64-16 88-34
           14 3 29 5 44 5
           92 0 166-60 166-139
           0-74-74-134-166-134z"
        fill="#ffffff"/>
  <!-- 눈 -->
  <circle cx="212" cy="252" r="17" fill="#0b7d73"/>
  <circle cx="300" cy="252" r="17" fill="#0b7d73"/>
  <!-- 미소 -->
  <path d="M206 300 q50 46 100 0" fill="none" stroke="#0b7d73" stroke-width="16" stroke-linecap="round"/>
  <!-- 반짝임(따뜻함) -->
  <path d="M388 150 l10 26 26 10 -26 10 -10 26 -10-26 -26-10 26-10z" fill="#ffe27a"/>
</svg>
